<?xml version="1.0" encoding="UTF-8"?>
<svg width="41px" height="41px" viewBox="0 0 41 41" version="1.1" xmlns="http://www.w3.org/2000/svg" xmlns:xlink="http://www.w3.org/1999/xlink">
    <!-- Generator: Sketch 45.2 (43514) - http://www.bohemiancoding.com/sketch -->
    <title>facebook</title>
    <desc>Created with Sketch.</desc>
    <defs></defs>
    <g id="Page-1" stroke="none" stroke-width="1" fill="none" fill-rule="evenodd">
        <g id="GOTS_Landing" transform="translate(-1045.000000, -37.000000)" fill="#FFFFFF">
            <g id="facebook" transform="translate(1045.000000, 37.000000)">
                <g id="Facebook">
                    <path d="M8.2,0 C3.68008522,0 0,3.68008522 0,8.2 L0,32.8 C0,37.3199146 3.68008522,41 8.2,41 L32.8,41 C37.3199146,41 41,37.3199146 41,32.8 L41,8.2 C41,3.68008522 37.3199146,0 32.8,0 L8.2,0 Z M22.76,5.74 C24.93273,5.74 26.936842,6.168815 27.76,6.365 L27.76,9.07333333 L25.76,9.07333333 C24.609178,9.07333333 23.692815,9.147775 22.91625,9.568125 C22.139685,9.98847083 21.76,10.7912433 21.76,11.5733333 L21.76,14.0733333 L21.76,14.9066667 L22.76,14.9066667 L27.5725,14.9066667 L26.885,18.24 L22.76,18.24 L21.76,18.24 L21.76,19.0733333 L21.76,35.74 L16.76,35.74 L16.76,19.0733333 L16.76,18.24 L15.76,18.24 L13.76,18.24 L13.76,14.9066667 L15.76,14.9066667 L16.76,14.9066667 L16.76,14.0733333 L16.76,11.5733333 C16.76,9.7184825 17.139844,8.23329917 18.01,7.27645833 C18.880156,6.3196175 20.254904,5.74 22.76,5.74 Z" id="Shape" fill-rule="nonzero"></path>
                </g>
            </g>
        </g>
    </g>
</svg>