<?xml version="1.0" encoding="UTF-8"?>
<svg width="251px" height="61px" viewBox="0 0 251 61" version="1.1" xmlns="http://www.w3.org/2000/svg" xmlns:xlink="http://www.w3.org/1999/xlink">
    <!-- Generator: Sketch 45.2 (43514) - http://www.bohemiancoding.com/sketch -->
    <title>GOT_Logo</title>
    <desc>Created with Sketch.</desc>
    <defs></defs>
    <g id="Symbols" stroke="none" stroke-width="1" fill="none" fill-rule="evenodd">
        <g id="GOT_Logo">
            <path d="M150.193359,56.7080078 C150.333985,56.9248058 150.562498,57.1416005 150.878906,57.3583984 C151.505863,57.786135 152.244136,58 153.09375,58 C154.423835,58 155.695306,57.6015665 156.908203,56.8046875 C158.425789,55.8027294 159.18457,54.4668052 159.18457,52.796875 C159.18457,51.7421822 158.739262,50.6992239 157.848633,49.6679688 C157.432615,49.1816382 156.597663,48.4257864 155.34375,47.4003906 C153.292958,45.7128822 152.267578,44.283209 152.267578,43.1113281 C152.267578,42.4023402 152.516599,41.8515645 153.014648,41.4589844 C153.536135,41.0605449 154.289058,40.8613281 155.273438,40.8613281 C156.169926,40.8613281 156.890622,41.2333947 157.435547,41.9775391 C157.863283,42.5751983 158.077148,43.1816375 158.077148,43.796875 L158.630859,40.6855469 C158.566406,40.5683588 158.373048,40.4541021 158.050781,40.3427734 C157.412106,40.1142567 156.465827,40 155.211914,40 C153.770501,40 152.595708,40.3984335 151.6875,41.1953125 C150.849605,41.9335974 150.430664,42.8242135 150.430664,43.8671875 C150.430664,44.7636764 150.761715,45.6455035 151.423828,46.5126953 C151.863283,47.0986357 152.686517,47.927729 153.893555,49 C155.129889,50.101568 155.970701,50.9306613 156.416016,51.4873047 C157.107425,52.3603559 157.453125,53.2011678 157.453125,54.0097656 C157.453125,54.8300822 157.022465,55.5273409 156.161133,56.1015625 C155.416988,56.5996119 154.672855,56.8486328 153.928711,56.8486328 C153.102535,56.8486328 152.37012,56.6201195 151.731445,56.1630859 C150.887691,55.5595673 150.46582,54.6806698 150.46582,53.5263672 C150.184569,54.7919985 150.09375,55.8525348 150.193359,56.7080078 Z M163.667773,49.0615234 L166.673633,49.0615234 C167.083791,49.0439452 167.493943,48.8857437 167.904102,48.5869141 C168.718559,47.9892548 169.125781,46.9785227 169.125781,45.5546875 C169.125781,44.0019454 168.70684,42.7832075 167.868945,41.8984375 C167.183395,41.1777308 166.415825,40.8173828 165.566211,40.8173828 C164.716597,40.8173828 164.239063,40.8408201 164.133594,40.8876953 C163.869921,40.999024 163.738086,41.3740202 163.738086,42.0126953 C163.738086,42.9443406 163.714649,45.2939265 163.667773,49.0615234 Z M170.980273,46.0556641 C170.570115,47.3505924 169.743952,48.5517523 168.501758,49.6591797 C168.419726,49.7705084 168.156057,49.8818354 167.710742,49.9931641 C166.820113,50.209962 165.47247,50.3183594 163.667773,50.3183594 L163.667773,56.3476562 C163.70293,56.8339868 163.966599,57.2558576 164.458789,57.6132812 C164.704884,57.7890634 164.948046,57.9179683 165.188281,58 L160.064258,58 C160.304493,57.9179683 160.547655,57.7890634 160.79375,57.6132812 C161.28594,57.2558576 161.549609,56.8339868 161.584766,56.3476562 L161.584766,41.7666016 C161.549609,41.2861304 161.28594,40.8671893 160.79375,40.5097656 C160.547655,40.3281241 160.304493,40.1962895 160.064258,40.1142578 L163.667773,40.1142578 C164.927545,39.9091787 166.187298,39.9355456 167.44707,40.1933594 C169.972474,40.708987 171.235156,42.1269415 171.235156,44.4472656 C171.276172,44.8691427 171.191212,45.4052702 170.980273,46.0556641 Z M183.733984,41.2568359 L183.733984,56.9628906 C185.087507,56.6757798 186.194918,56.0576219 187.05625,55.1083984 C188.275006,53.7665949 188.884375,51.8505984 188.884375,49.3603516 C188.884375,46.8642453 188.275006,44.886726 187.05625,43.4277344 C186.194918,42.3964792 185.087507,41.6728536 183.733984,41.2568359 Z M177.177344,43.2783203 C175.982025,44.6728585 175.384375,46.580066 175.384375,49 C175.384375,51.419934 175.982025,53.3330008 177.177344,54.7392578 C178.026957,55.7353565 179.125579,56.4296855 180.473242,56.8222656 L180.473242,41.2216797 C179.125579,41.6084004 178.026957,42.2939404 177.177344,43.2783203 Z M182.485937,40.984375 L182.485937,57.1123047 C182.708595,57.1064453 182.945897,57.0888673 183.197852,57.0595703 L183.197852,41.1074219 C182.957616,41.0546872 182.720314,41.013672 182.485937,40.984375 Z M181.598242,57.0683594 L181.598242,40.9931641 C181.399022,41.0166017 181.202735,41.0488279 181.009375,41.0898438 L181.009375,56.9628906 C181.214454,57.0039065 181.410741,57.0390624 181.598242,57.0683594 Z M177.783789,40.9667969 C179.330672,40.2343713 180.877531,39.9150386 182.424414,40.0087891 C184.498643,40.0087891 186.423429,40.8554603 188.198828,42.5488281 C190.15001,44.4179781 191.125586,46.6884632 191.125586,49.3603516 C191.125586,51.9736459 190.120713,54.124015 188.110937,55.8115234 C186.370694,57.2705151 184.475206,58 182.424414,58 C180.19784,58 178.205673,57.3642642 176.447852,56.0927734 C174.238856,54.4931561 173.134375,52.2285303 173.134375,49.2988281 C173.134375,45.2031045 174.684164,42.4257885 177.783789,40.9667969 Z M195.371484,41.6611328 C195.406641,41.1748023 195.67031,40.7529315 196.1625,40.3955078 C196.414454,40.2138663 196.660546,40.0820317 196.900781,40 L191.741602,40 C191.981837,40.0820317 192.224999,40.2138663 192.471094,40.3955078 C192.969143,40.7529315 193.235742,41.1748023 193.270898,41.6611328 L193.270898,56.3388672 C193.235742,56.8251977 192.969143,57.2470685 192.471094,57.6044922 C192.224999,57.7861337 191.981837,57.9179683 191.741602,58 L196.900781,58 C196.660546,57.9179683 196.414454,57.7861337 196.1625,57.6044922 C195.67031,57.2470685 195.406641,56.8251977 195.371484,56.3388672 L195.371484,41.6611328 Z M203.282422,41.1953125 C203.270703,41.2187501 203.258984,41.2363281 203.247266,41.2480469 C203.229687,50.36528 203.220898,55.3486286 203.220898,56.1982422 L203.282422,41.1953125 Z M204.126172,56.4882812 C204.852738,56.9980494 205.643746,57.2529297 206.499219,57.2529297 C207.348832,57.2529297 208.14277,56.8515665 208.881055,56.0488281 C209.250197,55.6445292 209.534374,55.2431661 209.733594,54.8447266 L209.364453,58 L199.591016,58 C199.854689,57.9121089 200.115428,57.7714853 200.373242,57.578125 C200.894729,57.1855449 201.155469,56.7255886 201.155469,56.1982422 C201.155469,55.3486286 201.14668,50.36528 201.129102,41.2480469 C200.865428,40.6972629 200.24727,40.2812514 199.274609,40 L205.110547,40 C204.225777,40.2578138 203.616408,40.6562473 203.282422,41.1953125 L203.282422,55.7148438 C203.475782,55.9726575 203.757029,56.2304675 204.126172,56.4882812 Z M220.74707,40.3164062 L221.423828,40 L220.74707,43.2871094 C220.723633,42.9589827 220.626954,42.6337907 220.457031,42.3115234 C220.123045,41.6552702 219.592777,41.3271484 218.866211,41.3271484 L215.447266,41.3271484 L215.447266,48.0595703 L219.208984,48.0595703 C219.93555,48.0419921 220.533201,47.8427753 221.001953,47.4619141 L220.5625,50.9863281 C220.550781,50.6640609 220.448243,50.3447281 220.254883,50.0283203 C219.868162,49.3955046 219.223637,49.0791016 218.321289,49.0791016 L215.447266,49.0791016 L215.447266,55.7587891 C215.640626,56.0107434 215.916014,56.2626941 216.273437,56.5146484 C216.994144,57.0185572 217.770504,57.2705078 218.602539,57.2705078 C219.440434,57.2705078 220.222653,56.875004 220.949219,56.0839844 C221.312502,55.6855449 221.590819,55.290041 221.78418,54.8974609 L221.423828,58 L211.826172,58 C212.078126,57.9121089 212.333006,57.774415 212.59082,57.5869141 C213.106448,57.2001934 213.364258,56.7460964 213.364258,56.2246094 C213.364258,55.392574 213.355469,50.4971151 213.337891,41.5380859 C213.074217,40.9990207 212.464848,40.5917983 211.509766,40.3164062 L220.74707,40.3164062 Z M227.348437,49.0615234 L230.354297,49.0615234 C230.764455,49.0439452 231.174607,48.8857437 231.584766,48.5869141 C232.399223,47.9892548 232.806445,46.9785227 232.806445,45.5546875 C232.806445,44.0019454 232.387504,42.7832075 231.549609,41.8984375 C230.864059,41.1777308 230.096489,40.8173828 229.246875,40.8173828 C228.397261,40.8173828 227.919727,40.8408201 227.814258,40.8876953 C227.550585,40.999024 227.41875,41.3740202 227.41875,42.0126953 C227.41875,42.9443406 227.395313,45.2939265 227.348437,49.0615234 Z M232.182422,49.6591797 C232.78594,50.2158231 233.47734,51.0683536 234.256641,52.2167969 C235.270317,53.710945 236.160934,54.8330041 236.928516,55.5830078 C238.299616,56.918952 239.55351,57.4697277 240.690234,57.2353516 C240.6375,57.3583991 240.482228,57.4843744 240.224414,57.6132812 C239.720505,57.871095 238.964653,58 237.956836,58 C236.949018,58 235.724421,57.1357508 234.283008,55.4072266 C233.562301,54.5400347 232.944143,53.6728559 232.428516,52.8056641 C232.199999,52.3896464 231.816214,51.9765646 231.277148,51.5664062 C230.199018,50.7343708 228.889461,50.3183594 227.348437,50.3183594 L227.348437,56.3476562 C227.383594,56.8339868 227.647263,57.2558576 228.139453,57.6132812 C228.385548,57.7890634 228.62871,57.9179683 228.868945,58 L223.744922,58 C223.985157,57.9179683 224.228319,57.7890634 224.474414,57.6132812 C224.966604,57.2558576 225.230273,56.8339868 225.26543,56.3476562 L225.26543,41.7666016 C225.230273,41.2861304 224.966604,40.8671893 224.474414,40.5097656 C224.228319,40.3281241 223.985157,40.1962895 223.744922,40.1142578 L227.348437,40.1142578 C228.608209,39.9091787 229.867962,39.9355456 231.127734,40.1933594 C233.653138,40.708987 234.91582,42.1269415 234.91582,44.4472656 C234.956836,44.8691427 234.871876,45.4052702 234.660937,46.0556641 C234.250779,47.3505924 233.424616,48.5517523 232.182422,49.6591797 Z M241.877539,56.7080078 C242.018165,56.9248058 242.246678,57.1416005 242.563086,57.3583984 C243.190042,57.786135 243.928316,58 244.77793,58 C246.108014,58 247.379486,57.6015665 248.592383,56.8046875 C250.109968,55.8027294 250.86875,54.4668052 250.86875,52.796875 C250.86875,51.7421822 250.423442,50.6992239 249.532812,49.6679688 C249.116795,49.1816382 248.281842,48.4257864 247.02793,47.4003906 C244.977138,45.7128822 243.951758,44.283209 243.951758,43.1113281 C243.951758,42.4023402 244.200779,41.8515645 244.698828,41.4589844 C245.220315,41.0605449 245.973237,40.8613281 246.957617,40.8613281 C247.854106,40.8613281 248.574802,41.2333947 249.119726,41.9775391 C249.547463,42.5751983 249.761328,43.1816375 249.761328,43.796875 L250.315039,40.6855469 C250.250586,40.5683588 250.057228,40.4541021 249.734961,40.3427734 C249.096286,40.1142567 248.150006,40 246.896094,40 C245.45468,40 244.279887,40.3984335 243.37168,41.1953125 C242.533785,41.9335974 242.114844,42.8242135 242.114844,43.8671875 C242.114844,44.7636764 242.445895,45.6455035 243.108008,46.5126953 C243.547463,47.0986357 244.370697,47.927729 245.577734,49 C246.814069,50.101568 247.654881,50.9306613 248.100195,51.4873047 C248.791605,52.3603559 249.137305,53.2011678 249.137305,54.0097656 C249.137305,54.8300822 248.706645,55.5273409 247.845312,56.1015625 C247.101168,56.5996119 246.357035,56.8486328 245.612891,56.8486328 C244.786715,56.8486328 244.0543,56.6201195 243.415625,56.1630859 C242.571871,55.5595673 242.15,54.6806698 242.15,53.5263672 C241.868749,54.7919985 241.777929,55.8525348 241.877539,56.7080078 Z" id="Spoilers" fill="#D23A1D"></path>
            <g id="game_of_thrones" fill-rule="nonzero" fill="#FFFFFF">
                <path d="M27.4335046,18.05568 C26.8926824,18.3594667 26.6222713,18.8945067 26.6222713,19.6608 L26.6222713,29.68064 C26.6222713,29.70624 26.5966804,29.7472 26.5429394,29.7984 C25.9066244,30.2756431 25.207324,30.6624618 24.4649538,30.94784 C23.7087063,31.239412 22.9263305,31.458006 22.1284995,31.60064 C21.3299609,31.7442794 20.5230485,31.8366283 19.7127133,31.87712 C18.9074512,31.9163733 18.1218088,31.936 17.3557862,31.936 C16.1939568,31.936 15.019332,31.8967467 13.8319116,31.81824 C9.96117407,31.5809115 6.36583937,29.7357369 3.91541624,26.72896 C2.72720721,25.2661899 1.80867622,23.6035814 1.20277492,21.81888 C0.565226292,19.9508838 0.245170677,17.9892014 0.255909558,16.01536 C0.218035046,13.8669077 0.654956037,11.7366022 1.53545735,9.77664 C2.33508714,8.02237985 3.51318478,6.46705612 4.98511819,5.2224 C6.49279976,3.97123832 8.23191781,3.02917307 10.1033094,2.44992 C12.1277649,1.81947593 14.2375066,1.50601158 16.357739,1.52064 C17.5546816,1.5210054 18.7507098,1.5868102 19.9404728,1.71776 C21.1347174,1.85088 22.3161665,1.99594667 23.4848201,2.15296 L25.0484275,2.39104 C25.5602467,2.46954667 26.0814491,2.53525333 26.6120349,2.58816 C26.6556854,2.58213639 26.6996367,2.59690969 26.7307945,2.6280785 C26.7619523,2.65924731 26.7767204,2.70321416 26.7706989,2.74688 C26.7178109,3.69749333 26.6256835,4.62848 26.4943165,5.53984 C26.3629496,6.4512 26.2307297,7.36853333 26.0976567,8.29184 C26.0703597,8.47616 26.0439157,8.65450667 26.0183248,8.82688 C25.9927338,8.9984 25.9645838,9.16224 25.9389928,9.32096 C25.9389928,9.40032 25.8929291,9.4464 25.8008016,9.4592 C25.7638037,9.47020293 25.7239332,9.46581109 25.6902149,9.44701858 C25.6564967,9.42822608 25.631782,9.39662197 25.621665,9.35936 C25.445122,8.31339749 25.0538905,7.31536102 24.472631,6.42816 C23.9294377,5.61913296 23.2340958,4.92354536 22.4253546,4.38016 C21.5971361,3.8293065 20.679141,3.42732515 19.7127133,3.19232 C18.6963138,2.94080024 17.6530065,2.81442432 16.6059712,2.816 C14.8676354,2.80435231 13.1423537,3.11688798 11.5184892,3.7376 C9.99962644,4.3152825 8.60858708,5.18498936 7.42393628,6.2976 C6.24168324,7.41335922 5.30023562,8.75938201 4.65755396,10.2528 C3.97562227,11.8616203 3.63573845,13.5947686 3.65950668,15.34208 C3.64793233,17.2912942 4.024625,19.2232879 4.76759507,21.02528 C5.47527788,22.7599296 6.50317905,24.3457496 7.79756423,25.69984 C9.09272017,27.0446348 10.6396173,28.1214957 12.3501953,28.86912 C14.1403439,29.6549773 16.0765216,30.0528192 18.0313875,30.03648 C18.9241407,30.0342578 19.8139913,29.9346829 20.6851696,29.73952 C21.5646784,29.5557985 22.3677746,29.1094763 22.9883556,28.45952 L22.9883556,19.54048 C22.9883556,18.9073067 22.7904522,18.48064 22.3946454,18.26048 C21.9633707,18.0195165 21.5078909,17.8247322 21.0357657,17.67936 C20.8206089,17.6258868 20.6087067,17.5600713 20.40111,17.48224 C20.1805696,17.3938933 19.9696286,17.2832388 19.7715725,17.152 C19.6922405,17.09824 19.6666495,17.03936 19.6922405,16.9728 C19.7163311,16.907341 19.7814897,16.8663397 19.8509044,16.87296 C21.4341316,16.87296 22.997739,16.8866133 24.5417266,16.91392 C26.0857143,16.9412267 27.6493217,16.9941333 29.2325488,17.07264 L29.2709353,17.39008 C28.6265908,17.5113945 28.0061021,17.7361634 27.4335046,18.05568 Z" id="Shape"></path>
                <path d="M48.2773381,28.5696 L47.2281089,28.49024 C47.016557,28.4629333 46.7990339,28.4433067 46.5755396,28.43136 C46.3503392,28.41856 46.1200206,28.41088 45.8820247,28.41088 C45.274666,28.41088 44.6673073,28.4373333 44.0599486,28.49024 L42.2378726,28.64896 C42.1634105,28.6534747 42.0964784,28.6037978 42.0792086,28.5312 C42.0525288,28.45489 42.0864476,28.3706103 42.1585406,28.33408 L43.6939979,27.58144 C43.2453032,26.3406933 42.7769887,25.1195733 42.2890545,23.91808 C41.8011202,22.7165867 41.3362179,21.4852267 40.8943474,20.224 L34.752518,20.224 C34.619445,20.5653333 34.4283659,21.0773333 34.1792806,21.76 C33.9301953,22.4426667 33.6862282,23.1424 33.4473792,23.8592 C33.2102364,24.58624 32.9986845,25.2689067 32.8127235,25.9072 C32.6634401,26.3625981 32.5706181,26.8346097 32.5363412,27.31264 C32.5048468,27.6572738 32.718036,27.9771706 33.0481603,28.08064 C33.3704885,28.193719 33.7017898,28.2793568 34.0385303,28.33664 L34.0385303,28.65408 C33.5369476,28.6011733 33.0251285,28.5550933 32.503073,28.51584 C31.9810175,28.4765867 31.4529908,28.45696 30.9189928,28.45696 C30.3901131,28.45696 29.8620863,28.4765867 29.3349126,28.51584 C28.807739,28.5550933 28.2797122,28.6011733 27.7508325,28.65408 C27.6715005,28.67968 27.6254368,28.65408 27.6126413,28.53632 C27.5998458,28.41856 27.6331141,28.3648 27.712446,28.3392 C29.0841366,28.2145527 30.2659239,27.3211988 30.7603289,26.0352 L30.7603289,26.0736 C31.5246454,24.1467733 32.263371,22.2190933 32.9765057,20.29056 C33.6896403,18.3620267 34.3891264,16.4215467 35.074964,14.46912 C35.5492497,13.1498667 36.01074,11.8365867 36.4594347,10.52928 C36.9081295,9.22197333 37.3832682,7.90869333 37.884851,6.58944 C37.90666,6.52014234 37.9708898,6.47300921 38.0435149,6.47300921 C38.11614,6.47300921 38.1803698,6.52014234 38.2021788,6.58944 C38.3335457,6.95978667 38.4725899,7.32245333 38.6193114,7.67744 C38.7660329,8.03242667 38.904224,8.39509333 39.0338849,8.76544 C40.1155293,11.7230933 41.2440904,14.6935467 42.4195683,17.6768 C43.5962533,20.6663176 44.9375678,23.5883399 46.4373484,26.42944 C46.698087,26.9779138 47.1193417,27.4341367 47.6452415,27.7376 C48.1665876,28.0112967 48.7391702,28.173455 49.3265673,28.21376 L49.3265673,28.5312 C48.9793668,28.5832809 48.6274148,28.5961617 48.2773381,28.5696 Z M37.8464645,10.67008 C37.3977698,12.0695467 36.9712539,13.43488 36.5669168,14.76608 C36.1625797,16.09728 35.7070606,17.47712 35.2003597,18.9056 L40.3185509,18.9056 L37.8464645,10.67008 Z" id="Shape"></path>
                <path d="M77.8988695,28.61056 L74.6897636,28.61056 C73.6337102,28.61056 72.5913052,28.5841067 71.5625488,28.5312 C71.4038849,28.5312 71.3501439,28.46464 71.4038849,28.33408 C71.4289483,28.283356 71.448674,28.2301636 71.4627441,28.17536 C71.476457,28.1204452 71.4961967,28.0672153 71.5216033,28.01664 L71.7595992,27.3024 C71.8347278,27.0857535 71.8744765,26.8584144 71.8773176,26.62912 C71.8773176,25.12384 71.8048099,23.63904 71.6597945,22.17472 C71.514779,20.7104 71.3501439,19.2384 71.165889,17.75872 C71.0601131,16.8610133 70.9611614,16.0622933 70.8690339,15.36256 C70.7769065,14.6628267 70.7043988,13.8513067 70.6515108,12.928 C69.6483453,14.8548267 68.6852724,16.7816533 67.7622919,18.70848 C66.8393114,20.6353067 65.9154779,22.5911467 64.9907914,24.576 C64.6734635,25.23648 64.3629599,25.8901333 64.0592806,26.53696 C63.7556012,27.1837867 63.4450976,27.83744 63.1277698,28.49792 C63.1087163,28.5461842 63.0619225,28.5777302 63.0100514,28.57728 C62.9485371,28.5736558 62.8911944,28.5449743 62.8513875,28.49792 C61.6685276,26.8601202 60.6160632,25.1319279 59.7036999,23.32928 C58.8199589,21.57312 57.9822816,19.8109867 57.190668,18.04288 C56.7675642,17.1195733 56.3913772,16.2816 56.0621069,15.52896 C55.7328366,14.77632 55.3438541,13.952 54.8951593,13.056 C54.8149743,13.71648 54.7356423,14.35648 54.6571634,14.976 C54.5786845,15.59552 54.4993525,16.2090667 54.4191675,16.81664 C54.2076156,18.4533333 54.0225077,20.0746667 53.8638438,21.68064 C53.7051799,23.2866133 53.6258479,24.9233067 53.6258479,26.59072 C53.6258479,27.0651733 53.7444193,27.3885867 53.9815622,27.56096 C54.2506391,27.7499115 54.5431183,27.9030871 54.8516547,28.01664 C54.9930123,28.0841614 55.1382881,28.1431471 55.2867009,28.19328 C55.4709558,28.25984 55.5912333,28.30592 55.6424152,28.33152 C55.7145082,28.3680503 55.748427,28.45233 55.7217472,28.52864 C55.703575,28.600638 55.6372331,28.6498768 55.5630832,28.6464 C55.1945735,28.6464 54.8311819,28.6464 54.4754676,28.62592 C54.1197533,28.60544 53.7563618,28.59264 53.387852,28.56704 C53.0193422,28.54144 52.6482734,28.52096 52.2797636,28.50816 C51.9112539,28.49536 51.540185,28.48768 51.1716752,28.48768 L50.3809147,28.48768 C50.1154932,28.4905575 49.8508575,28.5171161 49.5901542,28.56704 C49.5108222,28.59264 49.4570812,28.55424 49.4314902,28.44928 C49.4058993,28.34432 49.4314902,28.27776 49.5108222,28.25216 C49.6660341,28.2080454 49.8256895,28.1814268 49.986814,28.1728 C50.24101,28.1284042 50.4922667,28.06856 50.7391881,27.9936 C50.9937509,27.8905185 51.2039312,27.7011081 51.3328983,27.45856 C51.4444241,27.1267016 51.5174117,26.783109 51.5504214,26.43456 C51.6425488,25.8269867 51.7483248,25.0589867 51.8677492,24.13056 C51.9871737,23.2021333 52.1168345,22.1346133 52.2567318,20.928 C52.4017472,19.7333333 52.5407914,18.51904 52.6738643,17.28512 C52.8069373,16.0512 52.9391572,14.83008 53.0705242,13.62176 C53.2018911,12.4270933 53.3204625,11.3245867 53.4262384,10.31424 C53.5320144,9.44384 53.6113464,8.67584 53.6642343,8.01024 C53.7171223,7.34464 53.7700103,6.86250667 53.8228983,6.56384 C53.8135905,6.49840886 53.8576854,6.43733276 53.922703,6.4256 C53.9886325,6.41197929 54.0568342,6.43439632 54.1018397,6.48448 C54.615633,7.12203222 55.0664359,7.80790635 55.4479239,8.53248 C56.0279856,9.55648 56.654964,10.7383467 57.3288592,12.07808 C58.0027544,13.4178133 58.7005344,14.8360533 59.4221994,16.3328 C60.1472765,17.83808 60.8134943,19.2375467 61.420853,20.5312 C61.8695478,21.4562133 62.2389106,22.2481067 62.5289414,22.90688 C62.8189723,23.5656533 63.0825591,24.12032 63.319702,24.57088 C63.7410997,23.7175467 64.1676156,22.8002133 64.5992497,21.81888 C65.0308839,20.8375467 65.4573998,19.8536533 65.8787975,18.8672 C66.801778,16.7287467 67.7784995,14.56384 68.808962,12.37248 C69.7507456,10.3361241 70.8493479,8.37608637 72.0948407,6.51008 C72.1330511,6.46299627 72.1938424,6.4404367 72.2535046,6.4512 C72.3072456,6.464 72.3328366,6.51008 72.3328366,6.58944 C72.3857246,6.90688 72.4317883,7.34890667 72.4710277,7.91552 C72.5102672,8.48213333 72.5699794,9.13578667 72.6501644,9.87648 C72.7286434,10.8544 72.8275951,11.9236267 72.9470195,13.08416 C73.066444,14.2446933 73.1986639,15.4299733 73.3436793,16.64 C73.4750462,17.8551467 73.6072662,19.0370133 73.7403392,20.1856 C73.8734121,21.3341867 74.0116033,22.3837867 74.1549126,23.3344 C74.2999281,24.2850133 74.4389723,25.0837333 74.5720452,25.73056 C74.7051182,26.3773867 74.8373381,26.78016 74.968705,26.93888 C75.1700246,27.2776506 75.4568488,27.5575134 75.8004111,27.7504 C76.1033484,27.8797655 76.422943,27.96594 76.7498356,28.0064 C76.9367926,28.0601049 77.1289728,28.0935767 77.323073,28.10624 C77.5376484,28.1246699 77.7464215,28.1855836 77.9372559,28.28544 L77.8988695,28.61056 Z" id="Shape"></path>
                <path d="M90.5919836,26.6112 C90.5135046,27.17952 90.4341727,27.7666133 90.3539877,28.37248 C90.3539877,28.45184 90.3002467,28.49024 90.1953237,28.49024 L90.1569373,28.52864 C89.9942336,28.5966209 89.8211623,28.6364414 89.6451182,28.6464 C89.0377595,28.6464 88.4244296,28.6395733 87.8051285,28.62592 C87.1858273,28.6122667 86.5724974,28.60544 85.9651387,28.60544 C85.436259,28.60544 84.9244399,28.5986133 84.4296814,28.58496 C83.9349229,28.5713067 83.4231038,28.56448 82.894224,28.56448 C82.1810894,28.56448 81.4619836,28.5713067 80.7369065,28.58496 C80.0118294,28.5986133 79.2927235,28.61824 78.5795889,28.64384 L78.5795889,28.3264 C78.9214133,28.3419412 79.2598229,28.2526195 79.5494861,28.0704 C79.7936393,27.905888 79.991112,27.6810071 80.1227235,27.4176 C80.2587595,27.1376304 80.3453399,26.8362238 80.3786331,26.52672 C80.4181521,26.1919649 80.4378062,25.8551612 80.4374923,25.51808 L80.4374923,9.04448 C80.4374923,8.51712 80.3120966,8.17578667 80.0613052,8.02048 C79.8058695,7.85955097 79.5338998,7.72652194 79.2500719,7.62368 L78.715221,7.44448 C78.4993498,7.37044121 78.2931463,7.27074096 78.101038,7.14752 C78.0500366,7.10311438 78.0274447,7.03433206 78.0421788,6.96832 C78.0539074,6.90327945 78.114962,6.85916894 78.18037,6.86848 L89.4634224,6.86848 C89.5718001,6.81461353 89.6838224,6.76842011 89.7986639,6.73024 C89.9144585,6.69239428 90.0273551,6.64619296 90.1364645,6.592 C90.2669784,6.53824 90.3335149,6.592 90.3335149,6.75072 C90.255036,7.43338667 90.1560843,8.07338667 90.0366598,8.67072 C89.9172354,9.26805333 89.7918397,9.86538667 89.6604728,10.46272 C89.6503558,10.499982 89.625641,10.5315861 89.5919228,10.5503786 C89.5582046,10.5691711 89.518334,10.5735629 89.4813361,10.56256 C89.3892086,10.54976 89.3431449,10.50368 89.3431449,10.42432 C89.2902569,9.50101333 88.9737821,8.89344 88.3937205,8.6016 C87.7248189,8.2927132 86.9932579,8.14372 86.2568756,8.1664 L83.1117472,8.1664 L83.1117472,16.29184 L87.7027646,16.29184 C87.8788158,16.2819308 88.0518953,16.2421084 88.2145838,16.17408 L88.8466804,15.936 C89.1218143,15.7837812 89.4138381,15.6643528 89.7167729,15.58016 C89.8481398,15.5272533 89.9138232,15.58016 89.9138232,15.73888 C89.8865262,16.05632 89.853258,16.3976533 89.8140185,16.76288 C89.774779,17.1281067 89.7287153,17.46944 89.6758273,17.78688 C89.6229394,18.1026133 89.5836999,18.4328533 89.5581089,18.7776 C89.532518,19.1223467 89.4932785,19.4525867 89.4403905,19.76832 C89.4470085,19.8377593 89.4060217,19.9029409 89.3405858,19.92704 C89.2790456,19.9560819 89.2056899,19.9403573 89.1614491,19.88864 C89.0443667,19.7798212 88.9563877,19.6434057 88.9055396,19.49184 C88.8671531,19.36128 88.8210894,19.21536 88.7673484,19.05664 L88.6086845,18.58048 C88.5516016,18.4159062 88.4569726,18.2669006 88.3323022,18.14528 C88.1210963,17.9794269 87.8674252,17.8765029 87.6004008,17.84832 C87.2438335,17.7834667 86.8608222,17.73056 86.4513669,17.6896 C86.0419116,17.64864 85.6392806,17.6290133 85.2434738,17.63072 L83.1450154,17.63072 L83.1450154,25.78944 C83.5630465,26.3881524 84.1489863,26.8495872 84.8289003,27.11552 C85.4976846,27.4075016 86.2181816,27.5624457 86.9478314,27.5712 C87.7930736,27.5966378 88.622597,27.3389532 89.3047585,26.83904 C89.9661838,26.3216199 90.4201812,25.5840676 90.5843063,24.76032 L90.9016341,24.83968 C90.7753854,25.4523733 90.6721686,26.04288 90.5919836,26.6112 Z" id="Shape"></path>
                <path d="M114.734491,14.72512 C114.728552,14.7462778 114.714364,14.7641611 114.695115,14.7747518 C114.675866,14.7853426 114.65317,14.7877524 114.632127,14.78144 C114.578386,14.78144 114.552795,14.74816 114.552795,14.70208 C114.552795,14.2020267 114.41631,13.8496 114.14334,13.6448 C113.807884,13.4219218 113.40912,13.3141096 113.007102,13.3376 C112.806156,13.3367302 112.605338,13.3478433 112.405714,13.37088 L111.804327,13.45024 C111.635256,13.4835011 111.464343,13.5065826 111.292508,13.51936 C111.110812,13.53472 110.944471,13.5424 110.780689,13.5424 L110.780689,17.9968 L113.851603,17.9968 C113.983324,17.9877835 114.109581,17.9406428 114.214995,17.86112 C114.332901,17.7859094 114.439712,17.6945712 114.532323,17.58976 C114.556925,17.5514558 114.605802,17.5368639 114.647367,17.5554145 C114.688931,17.5739651 114.710725,17.6200983 114.698664,17.664 C114.667955,18.08896 114.626156,18.5019733 114.573268,18.90304 C114.52038,19.3041067 114.456403,19.70176 114.381336,20.096 C114.375397,20.1171578 114.361209,20.1350411 114.341959,20.1456318 C114.32271,20.1562226 114.300015,20.1586324 114.278972,20.15232 C114.225231,20.15232 114.19964,20.11904 114.19964,20.07296 C114.214995,19.5729067 114.090452,19.2315733 113.826012,19.04896 C113.489808,18.8405583 113.097389,18.7413011 112.702569,18.7648 L110.793484,18.7648 L110.793484,23.296 C110.795609,23.4907708 110.833787,23.6834623 110.906084,23.86432 C110.979993,24.0528017 111.087515,24.2262848 111.223412,24.37632 C111.357866,24.5263008 111.519341,24.6496215 111.699404,24.73984 C111.883102,24.8307856 112.085598,24.8772622 112.290555,24.87552 L112.290555,25.05728 L112.139568,25.05728 C111.968962,25.05728 111.810298,25.0496 111.663577,25.03424 L111.187585,24.98816 C111.021244,24.9728 110.86258,24.96256 110.711593,24.95488 C110.560606,24.9472 110.40962,24.95488 110.258633,24.95488 C110.107646,24.95488 109.95666,24.95488 109.805673,24.97792 L109.352713,25.024 C109.171017,25.03936 108.991881,25.0496 108.820421,25.05728 C108.648962,25.06496 108.474943,25.05728 108.308602,25.05728 L108.17297,25.05728 C108.126906,25.05728 108.101316,25.03168 108.093638,24.97792 C108.087328,24.95687 108.089737,24.9341663 108.100324,24.9149105 C108.110911,24.8956546 108.128788,24.8814614 108.149938,24.87552 C108.367711,24.8445478 108.580857,24.7869435 108.784594,24.704 C108.920358,24.6491316 109.03572,24.5534103 109.114717,24.43008 C109.188671,24.2977711 109.228265,24.1490184 109.229877,23.99744 C109.229877,23.8267733 109.229877,23.6032 109.229877,23.32672 L109.229877,13.83936 C109.229877,13.4980267 109.161634,13.2821333 109.025149,13.19168 C108.877065,13.1040476 108.716588,13.0393161 108.549157,12.99968 C108.472384,12.96896 108.377698,12.93568 108.265098,12.89728 C108.14173,12.8544964 108.024005,12.7969025 107.914502,12.72576 C107.868438,12.69504 107.853083,12.66176 107.868438,12.62336 C107.882838,12.5870695 107.919072,12.5642855 107.958006,12.56704 C108.911696,12.61312 109.873063,12.63616 110.842107,12.63616 L112.454337,12.63616 C112.528551,12.63616 112.610442,12.63616 112.692333,12.63616 C112.774224,12.63616 112.863792,12.63616 112.948243,12.63616 C113.289455,12.65152 113.648582,12.65152 114.025622,12.63616 C114.362908,12.6282131 114.69352,12.5404866 114.990401,12.38016 C115.003498,12.3657134 115.022087,12.3574742 115.041583,12.3574742 C115.061079,12.3574742 115.079667,12.3657134 115.092765,12.38016 C115.127818,12.4060178 115.14141,12.4520372 115.126033,12.4928 L114.734491,14.72512 Z" id="Shape"></path>
                <path d="M238.648458,3.54304 C238.632593,4.39528835 238.507017,5.24193945 238.27483,6.06208 C238.252383,6.13515203 238.184907,6.18502404 238.108489,6.18502404 C238.032072,6.18502404 237.964596,6.13515203 237.942148,6.06208 C237.840539,5.4626826 237.621365,4.88932374 237.297256,4.37504 C237.015181,3.95171583 236.6373,3.60089034 236.194286,3.35104 C235.727821,3.09685631 235.221606,2.92373033 234.697215,2.83904 C234.119858,2.74032786 233.535079,2.6915077 232.949353,2.69312 L127.368746,2.69312 L127.368746,27.01312 C127.344285,28.0586354 127.724816,29.0731325 128.430771,29.84448 C129.121647,30.6072947 130.057973,31.1037043 131.076876,31.24736 C131.115641,31.2581012 131.148519,31.2838721 131.168216,31.318956 C131.187914,31.35404 131.192803,31.3955363 131.181799,31.43424 C131.166444,31.53152 131.117821,31.58016 131.03593,31.58016 C130.06518,31.4965333 129.087605,31.4274133 128.103207,31.3728 C127.118808,31.3181867 126.126732,31.29088 125.126978,31.29088 C124.405313,31.29088 123.691326,31.31136 122.985015,31.35232 C122.278705,31.39328 121.563864,31.4385067 120.840493,31.488 C120.758602,31.488 120.70742,31.43936 120.694625,31.34208 C120.68362,31.3033763 120.688509,31.26188 120.708207,31.226796 C120.727905,31.1917121 120.760783,31.1659412 120.799548,31.1552 C121.334075,31.0557616 121.857113,30.9022257 122.360596,30.69696 C122.696903,30.5611775 122.986055,30.3297739 123.192302,30.03136 C123.387213,29.7092439 123.501352,29.3447483 123.524985,28.96896 C123.56593,28.53888 123.587256,27.99104 123.588962,27.32544 L123.588962,2.73152 L116.715231,2.73152 C115.839371,2.72627505 114.995873,3.06232477 114.363422,3.66848 C113.71225,4.25221334 113.19388,4.96893492 112.84332,5.77024 C112.78702,5.85472 112.725601,5.888 112.656506,5.8752 C112.587532,5.86343851 112.540792,5.79843626 112.551583,5.72928 C112.498876,5.48263447 112.47059,5.23139433 112.467133,4.9792 C112.465927,4.43150544 112.535602,3.88595889 112.674419,3.35616 C112.81261,2.8288 112.965303,2.28778667 113.132497,1.73312 C113.214388,1.45664 113.299692,1.18613333 113.388407,0.9216 C113.472857,0.6656 113.539394,0.4096 113.595694,0.1536 C113.651994,-0.0170666667 113.737297,-0.0452266667 113.851603,0.06912 C114.371491,0.404885022 114.95093,0.637785454 115.55852,0.7552 C116.191229,0.858624571 116.831655,0.907444318 117.472724,0.90112 L236.06889,0.90112 C236.315495,0.8975287 236.560616,0.862253184 236.798232,0.79616 L237.527575,0.60928 C237.665766,0.58112 237.82443,0.55296 238.006125,0.5248 L238.566567,0.44032 C238.648458,0.44032 238.691963,0.49664 238.691963,0.60672 L238.691963,0.93952 C238.690257,1.74506667 238.675755,2.61290667 238.648458,3.54304 Z" id="Shape"></path>
                <path d="M152.870134,28.72832 C151.471161,28.6481067 150.085838,28.608 148.714162,28.608 C148.21258,28.608 147.717821,28.6148267 147.229887,28.62848 C146.741953,28.6421333 146.230134,28.66176 145.69443,28.68736 C145.615098,28.68736 145.569034,28.64128 145.556238,28.54912 C145.545239,28.512109 145.54963,28.4722244 145.568416,28.4384942 C145.587201,28.4047641 145.618794,28.3800406 145.656043,28.36992 C146.473248,28.1326933 147.001274,27.8161067 147.240123,27.42016 C147.478972,27.0242133 147.597544,26.40384 147.595838,25.55904 L147.595838,17.32352 L135.440134,17.32352 L135.440134,25.64096 C135.440134,27.30496 136.298284,28.2154667 138.014584,28.37248 C138.093916,28.37248 138.134861,28.42624 138.134861,28.5312 C138.134861,28.63616 138.096475,28.68992 138.014584,28.68992 L136.786218,28.68992 C136.416002,28.68992 136.020195,28.7035733 135.598798,28.73088 C135.308767,28.73088 134.971819,28.7377067 134.587955,28.75136 C134.20409,28.76416 133.868849,28.77184 133.579671,28.77184 L132.612333,28.77184 C132.27112,28.77184 131.929908,28.75904 131.588695,28.73344 C131.483772,28.73344 131.358376,28.73344 131.212508,28.71296 C131.066639,28.69248 130.941244,28.69248 130.836321,28.69248 C130.731398,28.69248 130.710925,28.6464 130.698129,28.55424 C130.68713,28.517229 130.691521,28.4773444 130.710307,28.4436142 C130.729092,28.4098841 130.760685,28.3851606 130.797934,28.37504 C131.144915,28.3147182 131.487036,28.2291578 131.821572,28.11904 C132.054188,28.0480801 132.26071,27.9100533 132.415283,27.72224 C132.55505,27.5301466 132.643167,27.3053689 132.671192,27.06944 C132.715231,26.7299506 132.734901,26.3877414 132.730051,26.04544 L132.730051,9.1648 C132.756052,8.63522997 132.48981,8.13400678 132.036536,7.8592 C131.5915,7.57425108 131.079956,7.41014643 130.552261,7.38304 L130.552261,7.0656 C131.661202,7.14410667 132.756495,7.18336 133.83814,7.18336 C134.286835,7.18336 134.735529,7.17653333 135.184224,7.16288 C135.632919,7.14922667 136.081614,7.1424 136.530308,7.1424 L137.362014,7.1424 C137.441346,7.1424 137.479733,7.19616 137.479733,7.30112 C137.479733,7.40608 137.441346,7.45984 137.362014,7.45984 C136.898906,7.45803368 136.448498,7.61122636 136.082467,7.89504 C135.700119,8.1846951 135.485554,8.6446404 135.509229,9.12384 L135.509229,16.01536 L147.623988,16.01536 L147.623988,9.28256 C147.623988,8.64938667 147.459353,8.24661333 147.130082,8.07424 C146.744045,7.88152417 146.339305,7.7288354 145.922189,7.61856 L145.625334,7.5392 L145.328479,7.45984 C145.29123,7.44971942 145.259637,7.42499592 145.240851,7.39126578 C145.222065,7.35753565 145.217675,7.31765102 145.228674,7.28064 C145.24147,7.18848 145.287533,7.1424 145.366865,7.1424 C146.632765,7.22090667 147.860277,7.26016 149.049404,7.26016 C149.576578,7.26016 150.111429,7.25333333 150.653957,7.23968 C151.196485,7.22602667 151.731336,7.2064 152.25851,7.1808 C152.337842,7.1808 152.383905,7.22688 152.396701,7.31904 C152.4077,7.35605102 152.40331,7.39593565 152.384524,7.42966578 C152.365738,7.46339592 152.334145,7.48811942 152.296896,7.49824 C151.813165,7.57155155 151.34517,7.72558583 150.912425,7.95392 C150.571213,8.15189333 150.400606,8.57856 150.400606,9.23392 L150.400606,25.472 C150.400606,26.3697067 150.59851,27.0429867 150.994317,27.49184 C151.390123,27.9406933 152.036721,28.24448 152.934111,28.4032 L152.870134,28.72832 Z" id="Shape"></path>
                <path d="M174.10295,29.02528 C173.629895,29.1426958 173.144457,29.2028598 172.657061,29.20448 C171.921639,29.2163579 171.192455,29.067849 170.520216,28.76928 C169.900113,28.4881208 169.326302,28.1143643 168.818417,27.6608 C168.300645,27.1963681 167.830042,26.6818658 167.413474,26.1248 C166.978428,25.5445333 166.563001,24.9472 166.167194,24.3328 C165.796978,23.7781333 165.407996,23.2302933 165.000247,22.68928 C164.5999,22.1588135 164.149098,21.668414 163.654162,21.22496 C163.180561,20.7991282 162.646797,20.44546 162.070082,20.17536 C161.46718,19.9037634 160.811894,19.7682898 160.150761,19.77856 L159.518664,19.77856 C159.318275,19.7808171 159.118905,19.8074664 158.924954,19.85792 L158.924954,25.48992 C158.907274,26.2066346 159.154168,26.9047438 159.618469,27.45088 C160.083126,27.994409 160.745487,28.3298537 161.458458,28.38272 L161.458458,28.70016 C160.8511,28.6472533 160.253977,28.6011733 159.667091,28.56192 C159.080206,28.5226667 158.483083,28.50304 157.875725,28.50304 C157.268366,28.50304 156.68148,28.5294933 156.115067,28.5824 C155.548654,28.6353067 154.961768,28.7010133 154.354409,28.77952 C154.275077,28.80512 154.216218,28.77952 154.175272,28.67968 C154.154047,28.6430589 154.148325,28.5994733 154.159378,28.5586115 C154.170431,28.5177497 154.197342,28.4829976 154.234132,28.46208 C154.792901,28.1951178 155.271353,27.7853765 155.621161,27.27424 C155.97928,26.7787815 156.172649,26.1832458 156.173926,25.57184 L156.173926,9.75872 C156.17733,9.1583707 155.942662,8.58115976 155.521357,8.1536 C155.099961,7.69979529 154.557309,7.37639892 153.957749,7.22176 C153.9205,7.21163942 153.888907,7.18691592 153.870122,7.15318578 C153.851336,7.11945565 153.846945,7.07957102 153.857945,7.04256 C153.87074,6.9504 153.916804,6.90432 153.996136,6.90432 L161.796259,6.90432 C162.610649,6.90380115 163.422009,7.00353734 164.212045,7.20128 C164.962419,7.38147257 165.673577,7.69726895 166.310504,8.13312 C166.923674,8.56355958 167.42547,9.13398393 167.774306,9.79712 C168.160751,10.5564899 168.351627,11.4003365 168.32963,12.25216 C168.327047,13.5286457 167.963279,14.7783217 167.280401,15.85664 C166.628497,16.9334575 165.836816,17.9191042 164.926033,18.78784 C165.267583,19.1702493 165.584687,19.5738235 165.875457,19.99616 C166.21667,20.4859733 166.586033,20.9979733 166.983546,21.53216 C167.563607,22.3240533 168.176937,23.1355733 168.823535,23.96672 C169.447104,24.7707362 170.131547,25.5256009 170.870812,26.22464 C171.527491,26.8591547 172.27428,27.3931334 173.086989,27.80928 C173.804936,28.1837257 174.620544,28.328496 175.423443,28.224 L175.541161,28.54144 C175.079715,28.7518909 174.597747,28.9140335 174.10295,29.02528 Z M165.194738,11.65824 C165.006333,10.9915332 164.70512,10.3620512 164.304173,9.79712 C163.913534,9.2472249 163.415586,8.78219265 162.84037,8.43008 C162.23082,8.06580551 161.531131,7.88039776 160.821244,7.89504 C160.503856,7.89501575 160.186773,7.91468016 159.871819,7.95392 C159.556956,7.99272477 159.249789,8.07903804 158.960781,8.20992 L158.960781,18.07616 C159.392487,18.1536464 159.82823,18.2066377 160.26592,18.23488 C160.687318,18.2621867 161.123217,18.2749867 161.573618,18.27328 C163.051069,18.27328 164.074707,17.8705067 164.644532,17.06496 C165.214358,16.2594133 165.498417,15.1441067 165.496711,13.71904 C165.49401,13.0212756 165.392339,12.3274252 165.194738,11.65824 L165.194738,11.65824 Z" id="Shape"></path>
                <path d="M194.209764,22.72768 C193.608312,24.0054128 192.765376,25.1546447 191.727441,26.112 C190.684076,27.0709655 189.468343,27.8232486 188.144707,28.32896 C186.774453,28.858877 185.317053,29.127189 183.847986,29.12 C182.511028,29.0976734 181.194655,28.7868018 179.988869,28.20864 C178.657223,27.6026919 177.42304,26.8020447 176.326804,25.83296 C175.237109,24.8785922 174.308202,23.754866 173.575776,22.50496 C172.880883,21.371515 172.505098,20.0712816 172.48816,18.74176 C172.459624,17.0688094 172.639288,15.3988071 173.023011,13.77024 C173.330986,12.4828032 173.919046,11.27917 174.745283,10.24512 C175.600599,9.23306031 176.668311,8.42194146 177.872497,7.86944 C179.390565,7.1719682 180.985706,6.65639329 182.624738,6.33344 L183.136557,6.29248 C184.743202,6.14774177 186.360823,6.39912863 187.847852,7.02464 C189.277825,7.63064524 190.570494,8.51972405 191.648109,9.6384 C192.749723,10.7878746 193.618711,12.1396282 194.207205,13.6192 C194.827168,15.1539153 195.142682,16.794645 195.136156,18.44992 C195.153266,19.9274271 194.836591,21.3897225 194.209764,22.72768 L194.209764,22.72768 Z M183.461562,7.62368 C183.13228,7.62847667 182.803447,7.64983698 182.47631,7.68768 L182.47631,27.68128 C182.801265,27.7509773 183.13036,27.7997177 183.461562,27.8272 L183.461562,7.62368 Z M185.821048,27.7248 C186.500176,27.6081251 187.158766,27.3934042 187.776197,27.08736 C188.776525,26.5975921 189.660451,25.8992789 190.368561,25.03936 C191.083026,24.153274 191.620787,23.1382082 191.952641,22.04928 C192.317736,20.8784603 192.500716,19.6584487 192.49517,18.432 C192.491858,17.1174861 192.298786,15.8103407 191.921932,14.55104 C191.559698,13.3001951 190.983948,12.1214391 190.220134,11.06688 C189.481591,10.0495766 188.537293,9.19914689 187.448633,8.57088 C186.940742,8.27773208 186.397129,8.05143342 185.831285,7.8976 L185.821048,27.7248 Z M185.135211,7.7568 C184.809317,7.70023587 184.480297,7.66347519 184.149959,7.64672 L184.149959,27.87072 L184.213936,27.87072 C184.529558,27.87072 184.837503,27.8562133 185.13777,27.8272 L185.135211,7.7568 Z M181.808386,7.808 C180.105496,8.14248807 178.569425,9.05270618 177.457924,10.38592 C176.732831,11.2665983 176.175912,12.2732236 175.814985,13.35552 C175.427257,14.5102952 175.233553,15.7213749 175.241747,16.93952 C175.242744,18.2691514 175.442869,19.5911306 175.835457,20.86144 C176.2147,22.1229668 176.810471,23.3088652 177.596115,24.36608 C178.3579,25.3942352 179.320898,26.2565359 180.426475,26.90048 C180.863846,27.1558397 181.328173,27.3618987 181.810946,27.51488 L181.808386,7.808 Z" id="Shape"></path>
                <path d="M218.626095,7.36256 C218.613299,7.34976 218.580031,7.36256 218.52629,7.38304 C218.156074,7.48885333 217.767091,7.62112 217.359342,7.77984 C216.989001,7.88475208 216.736428,8.22689817 216.745159,8.61184 L216.786105,18.15552 L216.786105,19.77856 C216.786105,21.31456 216.759661,22.8258133 216.706773,24.31232 C216.653885,25.7988267 216.561757,27.29728 216.430391,28.80768 C216.425047,28.8686065 216.386722,28.9216898 216.330586,28.94592 C216.275458,28.9864427 216.198405,28.977506 216.154008,28.92544 C214.886403,27.8434133 213.619651,26.6752 212.353751,25.4208 C211.087852,24.1664 209.842425,22.8864 208.617472,21.5808 C207.390812,20.2734933 206.183772,18.9533867 204.996351,17.62048 C203.808931,16.2875733 202.670987,14.9870933 201.582518,13.71904 C201.212302,13.3230933 200.882179,12.9467733 200.592148,12.59008 C200.302117,12.2333867 199.971994,11.8570667 199.601778,11.46112 C199.525023,12.1411105 199.485724,12.8248103 199.48406,13.50912 C199.48406,14.51264 199.496855,15.51616 199.522446,16.51968 C199.548037,17.5232 199.587276,18.52672 199.640164,19.53024 C199.693052,20.53376 199.732292,21.53728 199.757883,22.5408 C199.783474,23.54432 199.796269,24.56064 199.796269,25.58976 C199.786683,25.9560614 199.826276,26.3219933 199.913988,26.67776 C199.973377,26.911277 200.073901,27.1323345 200.210843,27.33056 C200.320738,27.4817395 200.471746,27.5981452 200.645889,27.66592 C200.818225,27.7325459 200.99771,27.7789363 201.18074,27.80416 C201.392292,27.8570667 201.603844,27.9168 201.815396,27.98336 C202.086192,28.0816812 202.340026,28.2215984 202.56777,28.39808 C202.617836,28.4431014 202.640245,28.5113272 202.626629,28.57728 C202.6149,28.6423205 202.553846,28.6864311 202.488438,28.67712 L201.720709,28.59776 L200.95298,28.5184 C200.582765,28.4654933 200.206578,28.42624 199.824419,28.40064 C199.442261,28.37504 199.066074,28.36224 198.695858,28.36224 C198.206279,28.3638165 197.717318,28.3971665 197.232055,28.46208 C196.730473,28.52864 196.22889,28.6011733 195.727307,28.67968 C195.693169,28.6945405 195.654368,28.694415 195.620326,28.679334 C195.586284,28.6642529 195.560114,28.6355956 195.548171,28.60032 C195.513151,28.5415845 195.520411,28.4668876 195.566084,28.416 C195.744888,28.255427 195.936616,28.1098677 196.139322,27.9808 C196.309928,27.8749867 196.474563,27.7828267 196.633227,27.70432 C196.95552,27.5418244 197.244558,27.3204112 197.485406,27.05152 C197.741316,26.7665067 197.86927,26.32192 197.86927,25.71776 L197.86927,7.18336 L198.186598,6.54848 C198.211621,6.49719902 198.253054,6.45575149 198.304317,6.43072 C198.324456,6.41751854 198.349499,6.41418146 198.372391,6.42164885 C198.395283,6.42911623 198.413546,6.44657984 198.422035,6.46912 C201.295046,9.45408 204.077636,12.3921067 206.769805,15.2832 C209.461973,18.1742933 212.191675,21.16096 214.958911,24.2432 L214.958911,24.12544 C214.958911,22.912 214.952086,21.7105067 214.938438,20.52096 C214.924789,19.3314133 214.906876,18.1230933 214.884697,16.896 C214.8574,15.7610667 214.830956,14.5527467 214.805365,13.27104 C214.779774,11.9893333 214.764419,10.7784533 214.759301,9.6384 C214.770052,9.27075236 214.723428,8.9036761 214.62111,8.5504 C214.552273,8.31055756 214.423718,8.09211299 214.247482,7.91552 C214.102411,7.77789178 213.927119,7.67618623 213.735663,7.61856 C213.553392,7.56694227 213.367869,7.52760081 213.180339,7.5008 C212.987671,7.4773993 212.796338,7.44407505 212.607102,7.40096 C212.433906,7.36097934 212.275812,7.27213129 212.151583,7.14496 C212.098614,7.09255738 212.090042,7.01001613 212.13111,6.94784 C212.172055,6.86848 212.21556,6.84288 212.269301,6.86848 C212.833444,6.94432053 213.401892,6.98365563 213.9711,6.98624 L215.634512,6.98624 C215.975725,6.98624 216.325468,6.97941333 216.683741,6.96576 C217.046387,6.95337991 217.409433,6.96021614 217.771357,6.98624 C217.90443,6.98624 218.047739,6.98624 218.206403,7.00672 C218.365067,7.0272 218.510935,7.0272 218.641449,7.0272 L218.720781,7.34464 C218.672158,7.37024 218.63889,7.37536 218.626095,7.36256 Z" id="Shape"></path>
                <path d="M233.614717,26.6112 C233.536238,27.17952 233.456906,27.7666133 233.376721,28.37248 C233.376721,28.45184 233.32298,28.49024 233.218058,28.49024 L233.179671,28.52864 C233.016967,28.5966209 232.843896,28.6364414 232.667852,28.6464 C232.060493,28.6464 231.447163,28.6395733 230.827862,28.62592 C230.208561,28.6122667 229.595231,28.60544 228.987873,28.60544 C228.458993,28.60544 227.947174,28.5986133 227.452415,28.58496 C226.957657,28.5713067 226.445838,28.56448 225.916958,28.56448 C225.203823,28.56448 224.484717,28.5713067 223.75964,28.58496 C223.034563,28.5986133 222.315457,28.61824 221.602323,28.64384 L221.602323,28.3264 C221.94413,28.3417771 222.282491,28.2524682 222.57222,28.0704 C222.816373,27.905888 223.013846,27.6810071 223.145457,27.4176 C223.281542,27.1376489 223.368124,26.8362338 223.401367,26.52672 C223.441012,26.191976 223.460667,25.8551648 223.460226,25.51808 L223.460226,9.04448 C223.460226,8.51712 223.33483,8.17578667 223.084039,8.02048 C222.828661,7.85944703 222.55668,7.72641238 222.272806,7.62368 L221.737955,7.44448 C221.522065,7.37048705 221.315856,7.27078422 221.123772,7.14752 C221.07277,7.10311438 221.050179,7.03433206 221.064913,6.96832 C221.076641,6.90327945 221.137696,6.85916894 221.203104,6.86848 L232.468243,6.86848 C232.576617,6.81460585 232.68864,6.76841221 232.803484,6.73024 C232.919313,6.69248831 233.032217,6.64628423 233.141285,6.592 C233.274358,6.53824 233.338335,6.592 233.338335,6.75072 C233.25815,7.43338667 233.159198,8.07338667 233.04148,8.67072 C232.923762,9.26805333 232.798366,9.86538667 232.665293,10.46272 C232.655176,10.499982 232.630461,10.5315861 232.596743,10.5503786 C232.563025,10.5691711 232.523154,10.5735629 232.486156,10.56256 C232.394029,10.54976 232.347965,10.50368 232.347965,10.42432 C232.295077,9.50101333 231.978602,8.89344 231.398541,8.6016 C230.72958,8.2928922 229.998062,8.14390768 229.261696,8.1664 L226.134481,8.1664 L226.134481,16.29184 L230.725498,16.29184 C230.90155,16.2819308 231.074629,16.2421084 231.237318,16.17408 L231.869414,15.936 C232.144589,15.7838661 232.436602,15.6644418 232.739507,15.58016 C232.870874,15.5272533 232.936557,15.58016 232.936557,15.73888 C232.910966,16.05632 232.877698,16.3976533 232.836752,16.76288 C232.795807,17.1281067 232.749743,17.46944 232.698561,17.78688 C232.645673,18.1026133 232.606434,18.4328533 232.580843,18.7776 C232.555252,19.1223467 232.516012,19.4525867 232.463124,19.76832 C232.469742,19.8377593 232.428755,19.9029409 232.36332,19.92704 C232.301678,19.9551809 232.228885,19.9395768 232.184183,19.88864 C232.0671,19.7798212 231.979122,19.6434057 231.928273,19.49184 C231.887328,19.36128 231.841264,19.21536 231.790082,19.05664 L231.631418,18.58048 C231.574335,18.4159062 231.479706,18.2669006 231.355036,18.14528 C231.143691,17.982623 230.891039,17.8824136 230.625694,17.856 C230.269126,17.7911467 229.886115,17.73824 229.47666,17.69728 C229.067205,17.65888 228.665427,17.6384 228.268767,17.6384 L226.170308,17.6384 L226.170308,25.79712 C226.588452,26.3957262 227.174356,26.8571329 227.854193,27.1232 C228.522999,27.4151153 229.243482,27.5700566 229.973124,27.57888 C230.818366,27.6043178 231.64789,27.3466332 232.330051,26.84672 C232.991477,26.3292999 233.445474,25.5917476 233.609599,24.768 L233.926927,24.84736 C233.798972,25.4549333 233.694902,26.04288 233.614717,26.6112 Z" id="Shape"></path>
                <path d="M248.219476,25.44128 C247.730571,26.2080811 247.098973,26.8737961 246.359013,27.40224 C245.59666,27.9492681 244.75525,28.3765963 243.863895,28.66944 C243.029988,28.9601672 242.154561,29.1140477 241.271531,29.12512 C240.852411,29.1228341 240.434691,29.0764998 240.025252,28.98688 C239.607096,28.9013167 239.205907,28.7473578 238.837831,28.5312 C238.490886,28.3290509 238.193584,28.0517626 237.967739,27.71968 C237.732191,27.3477322 237.615272,26.9129264 237.632497,26.47296 C237.633176,26.1537903 237.66662,25.8355341 237.732302,25.5232 C237.798839,25.20576 237.858551,24.9019733 237.911439,24.61184 L238.108489,23.66208 C238.108489,23.5835733 238.161377,23.54432 238.267153,23.54432 C238.372076,23.54432 238.425817,23.58528 238.425817,23.66208 L238.425817,24.256 C238.415033,24.7667506 238.537642,25.2714789 238.781531,25.72032 C239.014194,26.1370158 239.323265,26.5061223 239.692569,26.80832 C240.069508,27.1165061 240.504696,27.345496 240.972117,27.4816 C241.453738,27.6256231 241.953713,27.6989212 242.456393,27.6992 C242.953626,27.6951825 243.447301,27.6148887 243.920195,27.46112 C244.411242,27.3078191 244.873152,27.0733214 245.286752,26.76736 C245.69196,26.4672529 246.034499,26.0906741 246.295036,25.65888 C246.558948,25.2229445 246.696298,24.7221049 246.691696,24.21248 C246.688461,23.6968142 246.566755,23.1887956 246.335982,22.72768 C246.073618,22.2001376 245.755314,21.7023434 245.386557,21.24288 C244.967362,20.7154829 244.517911,20.2128772 244.040473,19.7376 C243.53889,19.23584 243.027071,18.73408 242.505015,18.23232 C241.950545,17.70496 241.396074,17.16992 240.841603,16.6272 C240.310382,16.112193 239.820907,15.5557754 239.377801,14.9632 C238.976106,14.4270935 238.632938,13.8495093 238.354162,13.24032 C238.093424,12.6788894 237.958067,12.0673809 237.957503,11.44832 C237.937383,10.612899 238.202794,9.79561249 238.709877,9.13152 C239.21499,8.48141171 239.848235,7.94204798 240.570339,7.54688 C241.325502,7.13842313 242.13446,6.83851161 242.97333,6.656 C243.765036,6.46739162 244.575316,6.36778811 245.389116,6.35904 C246.367778,6.34559597 247.343065,6.47671537 248.283453,6.74816 C248.362785,6.80192 248.403731,6.85312 248.403731,6.90688 C248.297955,8.20053333 248.139291,9.53344 247.927739,10.9056 C247.909184,10.9780957 247.843883,11.0288013 247.769075,11.0288013 C247.694267,11.0288013 247.628966,10.9780957 247.610411,10.9056 C247.419962,10.0225258 247.003777,9.20397419 246.402518,8.52992 C245.803057,7.86727928 244.94086,7.50446621 244.04815,7.5392 C243.114345,7.51265408 242.208971,7.86220385 241.535118,8.50944 C240.862431,9.15383967 240.494981,10.0537135 240.524275,10.98496 C240.519749,11.4937172 240.635495,11.996341 240.862076,12.45184 C241.098848,12.921085 241.39096,13.3602671 241.732169,13.76 C242.113893,14.2079726 242.530634,14.6248607 242.978448,15.00672 C243.444203,15.4129067 243.932991,15.82848 244.44481,16.25344 C244.999281,16.7022933 245.546927,17.1707733 246.087749,17.65888 C246.607061,18.13065 247.084816,18.6462597 247.515725,19.2 C247.928236,19.7287887 248.272182,20.3076825 248.539363,20.92288 C248.806987,21.5488591 248.942046,22.2235212 248.936023,22.90432 C248.949248,23.8017342 248.700206,24.6834787 248.219476,25.44128 L248.219476,25.44128 Z" id="Shape"></path>
                <path d="M107.062323,21.7344 C106.721782,22.4609802 106.243816,23.11472 105.65482,23.65952 C105.058439,24.2054693 104.363658,24.6329112 103.607544,24.91904 C102.828999,25.220352 102.000938,25.3731718 101.166166,25.3696 C100.406815,25.3587145 99.6587491,25.1840749 98.9730216,24.8576 C98.2163542,24.5127138 97.515169,24.0571706 96.8924769,23.50592 C96.2732079,22.9642704 95.7452377,22.3263331 95.3288695,21.61664 C94.9338505,20.9728633 94.7198897,20.2343493 94.7095683,19.47904 C94.6942691,18.5313867 94.7965612,17.5854954 95.0141007,16.66304 C95.3498805,15.1715298 96.3723414,13.9274285 97.7702467,13.30944 C98.6328981,12.9148285 99.539125,12.6235304 100.470092,12.4416 L100.761829,12.41856 C101.674776,12.3368951 102.593824,12.4801625 103.438643,12.83584 C104.251257,13.1801356 104.985925,13.6851803 105.59852,14.32064 C106.223278,14.9745373 106.715962,15.7429447 107.049527,16.58368 C107.402699,17.4562202 107.582626,18.3892133 107.57926,19.33056 C107.588257,20.1603726 107.411635,20.981695 107.062323,21.7344 L107.062323,21.7344 Z M100.953762,13.14816 C100.76642,13.1515023 100.579367,13.1643186 100.39332,13.18656 L100.39332,24.5504 C100.578223,24.5894818 100.76541,24.6168429 100.953762,24.63232 L100.953762,13.14816 Z M102.294728,24.576 C102.680454,24.5100768 103.05457,24.388489 103.405375,24.21504 C103.974717,23.9350263 104.477375,23.5360749 104.879414,23.04512 C105.28562,22.5413704 105.591417,21.9643224 105.780216,21.34528 C105.985568,20.6821506 106.088267,19.9914899 106.084748,19.29728 C106.08347,18.5498688 105.973998,17.8065819 105.759743,17.09056 C105.553751,16.3772349 105.225583,15.7050775 104.789846,15.104 C104.369716,14.5258054 103.832598,14.0425777 103.213443,13.68576 C102.924838,13.5190705 102.61609,13.3900218 102.294728,13.30176 L102.294728,24.56576 L102.294728,24.576 Z M101.903186,13.21728 C101.717803,13.1848705 101.53066,13.1634996 101.342744,13.15328 L101.342744,24.64768 L101.391367,24.64768 C101.570504,24.64768 101.74111,24.64 101.903186,24.62464 L101.903186,13.21728 Z M100.004337,13.248 C99.0359853,13.437744 98.1622773,13.9547426 97.5296917,14.71232 C97.117418,15.2125174 96.8007782,15.7844062 96.5956218,16.39936 C96.3767154,17.0544564 96.2677596,17.7412932 96.2731757,18.432 C96.2740266,19.1871045 96.3878889,19.9378261 96.6109764,20.6592 C96.8263636,21.3761826 97.1649604,22.0501505 97.6115827,22.65088 C98.0445556,23.2358314 98.5922834,23.7262602 99.2212539,24.09216 C99.4694491,24.2369379 99.7329435,24.3537063 100.006896,24.44032 L100.004337,13.248 Z" id="Shape"></path>
            </g>
        </g>
    </g>
</svg>