<?xml version="1.0" encoding="UTF-8"?>
<svg width="41px" height="41px" viewBox="0 0 41 41" version="1.1" xmlns="http://www.w3.org/2000/svg" xmlns:xlink="http://www.w3.org/1999/xlink">
    <!-- Generator: Sketch 45.2 (43514) - http://www.bohemiancoding.com/sketch -->
    <title>twitter</title>
    <desc>Created with Sketch.</desc>
    <defs></defs>
    <g id="Page-1" stroke="none" stroke-width="1" fill="none" fill-rule="evenodd">
        <g id="GOTS_Landing" transform="translate(-980.000000, -37.000000)" fill="#FFFFFF">
            <g id="twitter" transform="translate(980.000000, 37.000000)">
                <g id="twitter-copy">
                    <path d="M29.9492188,0 L11.0507812,0 C4.94882812,0 0,4.94882812 0,11.0507812 L0,29.9492188 C0,36.0511719 4.94882812,41 11.0507812,41 L29.9492188,41 C36.0511719,41 41,36.0511719 41,29.9492188 L41,11.0507812 C41,4.94882812 36.0511719,0 29.9492188,0 Z M30.4777344,16.0396484 L30.49375,16.6402344 C30.49375,22.80625 25.8011719,29.9171875 17.2167969,29.9171875 C14.5822266,29.9171875 12.1318359,29.1404297 10.0658203,27.8191406 C10.4341797,27.8591797 10.8025391,27.8832031 11.1789062,27.8832031 C13.3650391,27.8832031 15.3830078,27.1384766 16.9765625,25.8892578 C14.9345703,25.8492188 13.2128906,24.4958984 12.6203125,22.6460938 C12.9085937,22.7021484 13.196875,22.7341797 13.5011719,22.7341797 C13.9335937,22.7341797 14.3299805,22.678125 14.7223633,22.5740234 C12.5922852,22.1496094 10.9707031,20.2597656 10.9707031,18.0015625 L10.9707031,17.9455078 C11.6113281,18.2978516 12.3360352,18.5060547 13.0967773,18.5300781 C11.8475586,17.6972656 11.0287598,16.2638672 11.0287598,14.6462891 C11.0287598,13.7894531 11.2639492,12.9886719 11.6643398,12.3 C13.962582,15.1267578 17.4074629,16.9845703 21.2832441,17.1767578 C21.203166,16.8324219 21.1638477,16.4800781 21.1638477,16.1117188 C21.1638477,13.5332031 23.2542871,11.4431641 25.8328027,11.4431641 C27.1701074,11.4431641 28.3874551,12.0117188 29.2362832,12.9166016 C30.3013223,12.7083984 31.2943711,12.3240234 32.1992539,11.7875 C31.8469102,12.8765625 31.1102715,13.7894531 30.149334,14.3660156 C31.0942559,14.2539063 31.9911309,13.9976563 32.8319512,13.6292969 C32.2074219,14.5662109 31.4146484,15.3910156 30.4777344,16.0396484 L30.4777344,16.0396484 Z" id="Shape" fill-rule="nonzero"></path>
                </g>
            </g>
        </g>
    </g>
</svg>